<?xml version="1.0" encoding="UTF-8"?>
<svg width="152px" height="60px" viewBox="0 0 152 60" version="1.1" xmlns="http://www.w3.org/2000/svg" xmlns:xlink="http://www.w3.org/1999/xlink">
    <title>Artboard</title>
    <g id="Artboard" stroke="none" stroke-width="1" fill="none" fill-rule="evenodd">
        <g id="logomark" fill-rule="nonzero">
            <path d="M87.1,26.5 C88,27.3 88.1,28.7 87.3,29.5 C86.5,30.4 85.3,30.5 84.4,29.7 C84,29.3 83.7,28.8 83.7,28.3 C83.7,28 83,28.2 82.1,29.6 L82.1,34.2 C82.1,35.5 82.2,36.4 83,36.6 L83,36.8 L77.4,36.8 L77.4,36.6 C78.2,36.3 78.3,35.4 78.3,34.2 L78.3,28.6 C78.3,27.8 78,27.5 77.1,27.1 L77.1,26.9 L82.1,25.9 L82.1,29.1 C83.7,26.6 84.3,26.4 85,26 C85.5,25.8 86.5,26 87.1,26.5 Z M76.3,35.2 L76.4,35.3 C76.1,36.3 74.9,37 73.5,37 C73.5,37 71,37 70.8,34.9 C70.5,36.1 69.4,37 67.8,37 C67,37 65,36.6 65,34.7 C65,32.4 66.8,32 70.8,31 L70.8,29.5 C70.8,27.1 69.5,25.8 68,26.6 C68,26.6 67.5,26.9 68.3,27.2 C68.7,27.3 68.9,27.7 69.1,28.1 C69.4,29 69.1,29.9 68.2,30.2 C67.4,30.5 66.5,30.1 66.2,29.3 C66,28.7 66.1,28 66.5,27.6 C66.8,27.3 67.2,26.9 68,26.4 C69,25.8 70.1,25.9 70.1,25.9 C73,25.9 74.6,27.8 74.6,30.5 L74.6,33.9 C74.6,33.9 74.6,35.6 75.7,35.5 C75.6,35.6 76.2,35.6 76.3,35.2 Z M70.9,31.2 C69.1,31.6 69.1,33 69.1,34.1 C69.1,34.1 69.1,35.6 70,35.6 C70.4,35.6 70.7,35.3 70.9,34.7 L70.9,31.2 Z M128.7,25.4 C129.9,25.4 130.8,24.4 130.8,23.2 C130.8,22 129.8,21 128.7,21 C127.5,21 126.6,22 126.6,23.2 C126.6,24.4 127.6,25.4 128.7,25.4 Z M95.2,26 C91,26 89.1,28.3 89.1,31.5 C89.1,34.7 91.5,37.1 94.4,37.1 C97.2,37.1 98.7,35.3 98.7,33.9 L98.5,33.8 C98.2,34.6 97.4,35 96.3,35 C94.4,35 93.4,33.7 93.4,31.2 C93.4,28.1 94,26.2 95.2,26.2 C96.5,26.2 96.8,27 96.6,27.1 C96.2,27.3 95.9,27.6 95.8,28 C95.5,28.9 95.9,29.9 96.8,30.2 C97.6,30.5 98.6,30.1 98.9,29.2 C99.1,28.6 98.9,27.9 98.6,27.5 C98.1,26.7 96.9,26 95.2,26 Z M151,34.6 C150.7,34.9 150.3,35.3 149.6,35.3 C148.3,35.3 147.9,34.7 147.9,33.4 L147.9,26.4 L150.8,26.4 L150.8,26.2 L147.9,26.2 L147.9,22.6 L144.2,23.1 L144.2,26.2 L142.8,26.2 L142.8,26.4 L144.1,26.4 L144.1,33.5 C144.1,36.3 146.1,37 147.9,37 C149.5,37 150.8,35.9 151.1,34.7 L151,34.6 Z M130.9,34.2 L130.9,26 L126,27 L126,27.2 C126.9,27.5 127.2,27.9 127.2,28.7 L127.2,34.3 C127.2,35.5 127.2,36.5 126.3,36.7 L126.3,36.9 L131.9,36.9 L131.9,36.7 C131,36.4 130.9,35.5 130.9,34.2 Z M123.9,34.2 L123.9,29.5 C123.9,26.7 122,26 120.3,26 C119.1,26 117.9,27 117.3,28.2 L117.3,26 L112.4,27 L112.4,27.2 C113.3,27.5 113.6,27.9 113.6,28.7 L113.6,34.3 C113.6,35.5 113.6,36.5 112.7,36.7 L112.7,36.9 L118.3,36.9 L118.3,36.7 C117.5,36.5 117.4,35.6 117.4,34.3 L117.4,28.6 C117.7,28.1 118.2,27.7 118.7,27.7 C119.8,27.7 120.2,28.3 120.2,29.6 L120.2,34.2 C120.2,35.4 120.2,36.4 119.3,36.6 L119.3,36.8 L124.9,36.8 L124.9,36.6 C124,36.4 123.9,35.4 123.9,34.2 Z M139.6,30.4 L137.4,29 C135.5,27.7 136.2,26.2 137.6,26.2 C138.9,26.2 140.6,26.9 141,29 L141.1,29 L141.1,26.7 C141.1,26.7 140,26.1 137.5,26.1 C135,26.1 134.1,27.2 134.1,27.2 C132.7,28.8 133.3,31 135.4,32.5 L137.6,33.9 C139.3,35 138.9,37 137.4,37 C135.9,37 134.1,35.6 133.6,33.4 L133.4,33.4 L133.4,36.4 C133.4,36.4 134.7,37.2 137.4,37.2 C140,37.2 140.8,36 140.8,36 C142.1,34.2 141.6,31.6 139.6,30.4 Z M111.7,35.2 L111.8,35.3 C111.5,36.3 110.3,37 108.9,37 C108.9,37 106.4,37 106.2,34.9 C105.9,36.1 104.8,37 103.2,37 C102.4,37 100.4,36.6 100.4,34.7 C100.4,32.4 102.2,32 106.2,31 L106.2,29.5 C106.2,27.1 104.9,25.8 103.4,26.6 C103.4,26.6 102.9,26.9 103.7,27.2 C104.1,27.3 104.3,27.7 104.5,28.1 C104.8,29 104.5,29.9 103.6,30.2 C102.8,30.5 101.9,30.1 101.6,29.3 C101.4,28.7 101.5,28 101.9,27.6 C102.2,27.3 102.6,26.9 103.4,26.4 C104.4,25.8 105.5,25.9 105.5,25.9 C108.4,25.9 110,27.8 110,30.5 L110,33.9 C110,33.9 110,35.6 111.1,35.5 C111,35.6 111.6,35.6 111.7,35.2 Z M106.3,31.2 C104.5,31.6 104.5,33 104.5,34.1 C104.5,34.1 104.5,35.6 105.4,35.6 C105.8,35.6 106.1,35.3 106.3,34.7 L106.3,31.2 Z" id="Shape" fill="#312E81"></path>
            <path d="M30,60 L0,30 L30,0 L60,30 L30,60 Z M1.68336673,30 L30,58.3166333 L58.3166333,30 L30,1.68336673 L1.68336673,30 Z" id="Shape" fill="#818CF8"></path>
            <path d="M54,54 L7,54 L7,7 L54,7 L54,54 L54,54 Z M8.20822622,52.7917738 L52.7917738,52.7917738 L52.7917738,8.20822622 L8.20822622,8.20822622 L8.20822622,52.7917738 Z" id="Shape" fill="#6366F1"></path>
            <path d="M30,53 L7,30 L30,7 L53,30 L30,53 Z M8.67272727,30 L30,51.3272727 L51.3272727,30 L30,8.67272727 L8.67272727,30 Z" id="Shape" fill="#A5B4FC"></path>
            <polygon id="Rectangle" fill="#A5B4FC" transform="translate(29.999580, 30.000000) rotate(-45.000000) translate(-29.999580, -30.000000) " points="20.9996663 21.0000863 38.9994937 21.0000863 38.9994937 38.9999137 20.9996663 38.9999137"></polygon>
            <polygon id="Path" fill="#4F46E5" points="43 30 18 30 30.5 17"></polygon>
        </g>
    </g>
</svg>