<svg xmlns="http://www.w3.org/2000/svg" width="100" height="120" viewBox="0 0 100 120">
    <title>arcanist logo</title>
    <style>.a{fill:#312e81}.b{fill:#a5b4fc}.c{fill:#4f46e5}.d{fill:#818cf8}.e{fill:#6366f1}</style>
    <path class="a" d="M29,109.5c0.9,0.8,1,2.2,0.2,3c-0.8,0.9-2,1-2.9,0.2c-0.4-0.4-0.7-0.9-0.7-1.4c0-0.3-0.7-0.1-1.6,1.3v4.6 c0,1.3,0.1,2.2,0.9,2.4v0.2h-5.6v-0.2c0.8-0.3,0.9-1.2,0.9-2.4v-5.6c0-0.8-0.3-1.1-1.2-1.5v-0.2l5-1v3.2c1.6-2.5,2.2-2.7,2.9-3.1 C27.4,108.8,28.4,109,29,109.5z M18.2,118.2l0.1,0.1c-0.3,1-1.5,1.7-2.9,1.7c0,0-2.5,0-2.7-2.1c-0.3,1.2-1.4,2.1-3,2.1 c-0.8,0-2.8-0.4-2.8-2.3c0-2.3,1.8-2.7,5.8-3.7v-1.5c0-2.4-1.3-3.7-2.8-2.9c0,0-0.5,0.3,0.3,0.6c0.4,0.1,0.6,0.5,0.8,0.9 c0.3,0.9,0,1.8-0.9,2.1c-0.8,0.3-1.7-0.1-2-0.9c-0.2-0.6-0.1-1.3,0.3-1.7c0.3-0.3,0.7-0.7,1.5-1.2c1-0.6,2.1-0.5,2.1-0.5 c2.9,0,4.5,1.9,4.5,4.6v3.4c0,0,0,1.7,1.1,1.6C17.5,118.6,18.1,118.6,18.2,118.2z M12.8,114.2c-1.8,0.4-1.8,1.8-1.8,2.9 c0,0,0,1.5,0.9,1.5c0.4,0,0.7-0.3,0.9-0.9V114.2z M70.6,108.4c1.2,0,2.1-1,2.1-2.2c0-1.2-1-2.2-2.1-2.2c-1.2,0-2.1,1-2.1,2.2 C68.5,107.4,69.5,108.4,70.6,108.4z M37.1,109c-4.2,0-6.1,2.3-6.1,5.5c0,3.2,2.4,5.6,5.3,5.6c2.8,0,4.3-1.8,4.3-3.2l-0.2-0.1 c-0.3,0.8-1.1,1.2-2.2,1.2c-1.9,0-2.9-1.3-2.9-3.8c0-3.1,0.6-5,1.8-5c1.3,0,1.6,0.8,1.4,0.9c-0.4,0.2-0.7,0.5-0.8,0.9 c-0.3,0.9,0.1,1.9,1,2.2c0.8,0.3,1.8-0.1,2.1-1c0.2-0.6,0-1.3-0.3-1.7C40,109.7,38.8,109,37.1,109z M92.9,117.6 c-0.3,0.3-0.7,0.7-1.4,0.7c-1.3,0-1.7-0.6-1.7-1.9v-7h2.9v-0.2h-2.9v-3.6l-3.7,0.5v3.1h-1.4v0.2H86v7.1c0,2.8,2,3.5,3.8,3.5 c1.6,0,2.9-1.1,3.2-2.3L92.9,117.6z M72.8,117.2V109l-4.9,1v0.2c0.9,0.3,1.2,0.7,1.2,1.5v5.6c0,1.2,0,2.2-0.9,2.4v0.2h5.6v-0.2 C72.9,119.4,72.8,118.5,72.8,117.2z M65.8,117.2v-4.7c0-2.8-1.9-3.5-3.6-3.5c-1.2,0-2.4,1-3,2.2V109l-4.9,1v0.2 c0.9,0.3,1.2,0.7,1.2,1.5v5.6c0,1.2,0,2.2-0.9,2.4v0.2h5.6v-0.2c-0.8-0.2-0.9-1.1-0.9-2.4v-5.7c0.3-0.5,0.8-0.9,1.3-0.9 c1.1,0,1.5,0.6,1.5,1.9v4.6c0,1.2,0,2.2-0.9,2.4v0.2h5.6v-0.2C65.9,119.4,65.8,118.4,65.8,117.2z M81.5,113.4l-2.2-1.4 c-1.9-1.3-1.2-2.8,0.2-2.8c1.3,0,3,0.7,3.4,2.8H83v-2.3c0,0-1.1-0.6-3.6-0.6c-2.5,0-3.4,1.1-3.4,1.1c-1.4,1.6-0.8,3.8,1.3,5.3 l2.2,1.4c1.7,1.1,1.3,3.1-0.2,3.1c-1.5,0-3.3-1.4-3.8-3.6h-0.2v3c0,0,1.3,0.8,4,0.8c2.6,0,3.4-1.2,3.4-1.2 C84,117.2,83.5,114.6,81.5,113.4z M53.6,118.2l0.1,0.1c-0.3,1-1.5,1.7-2.9,1.7c0,0-2.5,0-2.7-2.1c-0.3,1.2-1.4,2.1-3,2.1 c-0.8,0-2.8-0.4-2.8-2.3c0-2.3,1.8-2.7,5.8-3.7v-1.5c0-2.4-1.3-3.7-2.8-2.9c0,0-0.5,0.3,0.3,0.6c0.4,0.1,0.6,0.5,0.8,0.9 c0.3,0.9,0,1.8-0.9,2.1c-0.8,0.3-1.7-0.1-2-0.9c-0.2-0.6-0.1-1.3,0.3-1.7c0.3-0.3,0.7-0.7,1.5-1.2c1-0.6,2.1-0.5,2.1-0.5 c2.9,0,4.5,1.9,4.5,4.6v3.4c0,0,0,1.7,1.1,1.6C52.9,118.6,53.5,118.6,53.6,118.2z M48.2,114.2c-1.8,0.4-1.8,1.8-1.8,2.9 c0,0,0,1.5,0.9,1.5c0.4,0,0.7-0.3,0.9-0.9V114.2z"/>
    <path class="d" d="M50,99.9L0.1,50L50,0.1L99.9,50L50,99.9z M2.9,50L50,97.1L97.1,50L50,2.9L2.9,50z"/>
    <path class="e" d="M88.9,88.9H11.1V11.1h77.8V88.9z M13.1,86.9h73.8V13.1H13.1V86.9z"/>
    <path class="b" d="M50,88.5L11.5,50L50,11.5L88.5,50L50,88.5z M14.3,50L50,85.7L85.7,50L50,14.3L14.3,50z"/>
    <rect class="b" x="35" y="35" transform="matrix(0.7071 -0.7071 0.7071 0.7071 -20.7107 50)" width="30" height="30"/>
    <polygon class="c" points="71.2,50 28.8,50 50,28.8 "/>
</svg>
